<?xml version="1.0" encoding="UTF-8" standalone="no"?>
<!-- Created with Inkscape (http://www.inkscape.org/) -->

<svg
   width="18.000452mm"
   height="17.999935mm"
   viewBox="0 0 18.000452 17.999935"
   version="1.1"
   id="svg1"
   xml:space="preserve"
   xmlns="http://www.w3.org/2000/svg"
   xmlns:svg="http://www.w3.org/2000/svg"><defs
     id="defs1" /><g
     id="layer1"
     transform="translate(-116.23454,-212.13619)"><path
       id="rect2-2-0-7-7-2"
       style="fill:#ffffff;stroke:none;stroke-width:0.499999"
       d="m 121.23423,212.1362 c -1.108,0 -1.99991,0.89188 -1.99988,1.99988 v 3.99975 a 1.8682584,1.8682584 0 0 1 -0.83199,1.55494 l -2.16782,1.44539 h 3.00033 2.00039 v 7.00009 c 1e-5,1.108 0.89189,1.99988 1.99988,1.99988 h 6.00015 c 1.108,0 1.99991,-0.89188 1.99988,-1.99988 v -4.00027 a 1.8684332,1.8684332 0 0 1 0.83199,-1.55443 l 2.16783,-1.44539 h -2.99982 -2.00039 l -5.2e-4,-7.00008 c -6e-5,-1.108 -0.89189,-1.99988 -1.99988,-1.99988 z m 1.99988,0.99994 h 1.99988 c 0.554,0 0.99991,0.44594 0.99994,0.99994 l 0.001,7.00008 h 1.99988 v 7.00009 c 2e-5,0.554 -0.44594,0.99994 -0.99994,0.99994 h -1.99988 c -0.554,0 -0.99991,-0.44594 -0.99994,-0.99994 v -7.00009 h -1.99988 l -10e-4,-7.00008 c -5e-5,-0.554 0.44594,-0.99994 0.99994,-0.99994 z" /></g></svg>
